<svg width="59" height="34" viewBox="0 0 59 34" fill="none" xmlns="http://www.w3.org/2000/svg">
<g filter="url(#filter0_d_1_303)">
<path d="M49.7814 25.2838H9.21869C8.82465 25.2838 8.47439 25.0332 8.34674 24.6608L2.28311 6.97525C2.11853 6.49312 2.37489 5.96931 2.8565 5.80367C3.0042 5.75356 3.15823 5.7409 3.30119 5.76622C3.63457 5.78574 3.94526 5.98724 4.08927 6.31429C4.83885 8.01654 7.50537 13.512 10.616 13.512C10.6546 13.512 10.6936 13.511 10.7331 13.5089C12.6095 13.4255 15.544 11.2601 18.8688 1.4233C18.9959 1.04878 19.3467 0.796631 19.7418 0.796631C20.1374 0.796631 20.4882 1.04878 20.6154 1.4233C21.7505 4.77768 25.5554 13.4577 29.5064 13.4577C29.5169 13.4577 29.527 13.4572 29.538 13.4572C31.4112 13.4345 34.2914 11.3324 37.3757 1.44387C37.4964 1.05827 37.8525 0.796631 38.2561 0.796631H38.265C38.6722 0.800851 39.0283 1.07093 39.1412 1.46181C40.0838 4.70805 43.4271 13.2108 47.5279 13.5659C49.9239 13.7631 52.5803 11.0518 55.2031 5.69606C55.4162 5.25876 55.9342 5.06201 56.3842 5.24927C56.8331 5.43548 57.0609 5.93871 56.9037 6.39975L50.6539 24.6608C50.5257 25.0337 50.1755 25.2838 49.7814 25.2838ZM9.87702 23.4401H49.122L52.7338 12.887C50.9883 14.7343 49.2159 15.5582 47.3676 15.4031C42.8258 15.008 39.7093 8.46333 38.2603 4.61627C35.7008 11.7607 32.8434 15.2618 29.5591 15.3003C29.5412 15.3003 29.5243 15.3013 29.5064 15.3013C24.9166 15.3013 21.3734 8.26499 19.7682 4.38364C17.0294 11.6109 14.0902 15.2043 10.8149 15.3509C9.13588 15.4158 7.67364 14.5792 6.4145 13.338L9.87702 23.4401Z" fill="#A07B50"/>
<path d="M49.7814 25.2838H9.21869C8.82465 25.2838 8.47439 25.0332 8.34674 24.6608L2.28311 6.97525C2.11853 6.49312 2.37489 5.96931 2.8565 5.80367C3.0042 5.75356 3.15823 5.7409 3.30119 5.76622C3.63457 5.78574 3.94526 5.98724 4.08927 6.31429C4.83885 8.01654 7.50537 13.512 10.616 13.512C10.6546 13.512 10.6936 13.511 10.7331 13.5089C12.6095 13.4255 15.544 11.2601 18.8688 1.4233C18.9959 1.04878 19.3467 0.796631 19.7418 0.796631C20.1374 0.796631 20.4882 1.04878 20.6154 1.4233C21.7505 4.77768 25.5554 13.4577 29.5064 13.4577C29.5169 13.4577 29.527 13.4572 29.538 13.4572C31.4112 13.4345 34.2914 11.3324 37.3757 1.44387C37.4964 1.05827 37.8525 0.796631 38.2561 0.796631H38.265C38.6722 0.800851 39.0283 1.07093 39.1412 1.46181C40.0838 4.70805 43.4271 13.2108 47.5279 13.5659C49.9239 13.7631 52.5803 11.0518 55.2031 5.69606C55.4162 5.25876 55.9342 5.06201 56.3842 5.24927C56.8331 5.43548 57.0609 5.93871 56.9037 6.39975L50.6539 24.6608C50.5257 25.0337 50.1755 25.2838 49.7814 25.2838ZM9.87702 23.4401H49.122L52.7338 12.887C50.9883 14.7343 49.2159 15.5582 47.3676 15.4031C42.8258 15.008 39.7093 8.46333 38.2603 4.61627C35.7008 11.7607 32.8434 15.2618 29.5591 15.3003C29.5412 15.3003 29.5243 15.3013 29.5064 15.3013C24.9166 15.3013 21.3734 8.26499 19.7682 4.38364C17.0294 11.6109 14.0902 15.2043 10.8149 15.3509C9.13588 15.4158 7.67364 14.5792 6.4145 13.338L9.87702 23.4401Z" stroke="#1F1C1D" stroke-width="0.8"/>
</g>
<defs>
<filter id="filter0_d_1_303" x="-2.16687" y="0.396729" width="63.5203" height="33.2871" filterUnits="userSpaceOnUse" color-interpolation-filters="sRGB">
<feFlood flood-opacity="0" result="BackgroundImageFix"/>
<feColorMatrix in="SourceAlpha" type="matrix" values="0 0 0 0 0 0 0 0 0 0 0 0 0 0 0 0 0 0 127 0" result="hardAlpha"/>
<feOffset dy="4"/>
<feGaussianBlur stdDeviation="2"/>
<feComposite in2="hardAlpha" operator="out"/>
<feColorMatrix type="matrix" values="0 0 0 0 0 0 0 0 0 0 0 0 0 0 0 0 0 0 0.25 0"/>
<feBlend mode="normal" in2="BackgroundImageFix" result="effect1_dropShadow_1_303"/>
<feBlend mode="normal" in="SourceGraphic" in2="effect1_dropShadow_1_303" result="shape"/>
</filter>
</defs>
</svg>
